<svg xmlns="http://www.w3.org/2000/svg" width="128" height="128" fill="none"><path fill="#000" d="M0 0h128v128H0z"/><g clip-path="url(#a)"><path fill="#fff" d="M74.37 26.613c9.288 6.315 17.714 13.698 26.893 20.127 1.076 1.087 2.472 1.918 3.157 3.216 1.03 1.946.381 7.96.366 10.368-.032 4.876.204 10.015-.1 14.871-.172 2.738-.69 5.645-3.204 7.798-6.22 5.316-17.808 12.855-24.169 18.139-2.624 1.855-4.103 2.911-7.71 3.499-9.35 1.522-11.515-1.852-17.505-6.28-1.348-.997-2.906-1.887-4.187-2.97-1.996-1.683-2.001-2.373-2.137-4.503-.33-5.182 0-11.003.104-16.236.053-2.675.24-5.358.32-8.038l.323-.455.44-.027 17.29 12.823c1.097.404 2.044-.027 2.89-.56 3.973-3.355 12.806-9.137 16.669-12.51 1.197-1.048 1.338-1.66.11-2.734-5.248-4.57-12.179-8.65-17.573-13.188-1.082-.785-2.342-.306-3.32.321L23.937 79.463c-1.328.365-.852-1.785-.852-2.267 0-8.862-.058-17.766.48-26.608.173-.93.947-1.722 1.752-2.412 7.25-6.175 22.47-16.288 29.882-22.419 6.445-4.303 13.177-3.216 19.172.86v-.005Z"/></g><defs><clipPath id="a"><path fill="#fff" d="M23 23h82v82H23z"/></clipPath></defs></svg>